<?xml version="1.0" encoding="UTF-8"?><svg id="Prod" xmlns="http://www.w3.org/2000/svg" xmlns:xlink="http://www.w3.org/1999/xlink" viewBox="0 0 512 512"><defs><radialGradient id="radial-gradient" cx="188.24" cy="512.8" fx="188.24" fy="512.8" r="519.31" gradientUnits="userSpaceOnUse"><stop offset="0" stop-color="#f8437e"/><stop offset=".62" stop-color="#f52166"/><stop offset="1" stop-color="#f4125b"/></radialGradient></defs><rect id="Background" x="0" y="0" width="512" height="512" rx="128" ry="128" fill="url(#radial-gradient)"/><g id="BananaCakePop"><path d="M214.51,435.2c-.35,0-.71-.03-1.07-.09-1.23-.2-3-.88-4.4-2.92-1.98-2.89-3.73-8.81-1.72-30.83,1.14-12.52,3.4-28.98,6.71-48.9,4.56-27.5,9.91-54.21,11.79-63.43-7.07-3.67-24.45-13.7-39.89-30.62-11.57-12.68-19.62-26.6-23.91-41.37-5.37-18.5-4.83-38.29,1.62-58.82,5.21-16.56,12.91-31.11,22.9-43.23,9.51-11.53,20.91-20.68,33.89-27.18,13.01-6.52,27.17-10.19,42.07-10.89,14.8-.7,29.72,1.55,44.36,6.68,14.09,4.94,26.78,12.02,37.71,21.05,10.62,8.77,19.32,19.14,25.86,30.84,6.51,11.64,10.67,24.22,12.37,37.38,1.73,13.44,.84,27.09-2.67,40.56-7.51,28.89-23.35,52.19-45.81,67.39-10.69,7.24-22.62,12.46-35.47,15.51-11.57,2.75-23.67,3.7-36.01,2.82-2.35,9.92-9.09,37.9-16.82,65.42-5.64,20.08-10.71,36.01-15.06,47.35-2.68,7-5.05,12.18-7.25,15.84-1.25,2.1-4.45,7.43-9.22,7.43Z" fill="#f4d7ec"/><path d="M242.34,264.43c-8.67-4.16-22.37-12.06-35.01-26.15-6.19-6.9-15.81-18.02-20.98-35.34-4.72-15.8-4.24-32.7,1.42-50.24,4.57-14.15,11.33-26.57,20.1-36.93,8.35-9.85,18.35-17.67,29.74-23.22,11.42-5.57,23.84-8.7,36.92-9.3,12.99-.6,26.08,1.32,38.93,5.7,12.36,4.22,23.5,10.27,33.09,17.98,9.32,7.49,16.95,16.35,22.69,26.34,5.71,9.95,9.37,20.69,10.85,31.93,1.52,11.48,.73,23.14-2.34,34.65-6.59,24.68-20.49,44.58-40.2,57.57-4.09,2.7-15.12,9.45-31.13,13.25-12.97,3.08-24.12,3.08-31.6,2.41-11.59-1.04-22.12-4.03-32.5-8.65Z" fill="#fff"/></g></svg>